<?xml version="1.0" standalone="no"?>
<!DOCTYPE svg PUBLIC "-//W3C//DTD SVG 20010904//EN"
 "http://www.w3.org/TR/2001/REC-SVG-20010904/DTD/svg10.dtd">
<svg version="1.0" xmlns="http://www.w3.org/2000/svg"
 width="300.000000pt" height="300.000000pt" viewBox="0 0 300.000000 300.000000"
 preserveAspectRatio="xMidYMid meet">
<metadata>
Created by potrace 1.10, written by Peter Selinger 2001-2011
</metadata>
<g transform="translate(0.000000,300.000000) scale(0.100000,-0.100000)"
fill="#000000" stroke="none">
<path d="M343 2993 c37 -2 96 -2 130 0 34 2 4 3 -68 3 -72 0 -99 -1 -62 -3z"/>
<path d="M788 2993 c39 -2 105 -2 145 0 39 1 7 3 -73 3 -80 0 -112 -2 -72 -3z"/>
<path d="M1263 2993 c37 -2 96 -2 130 0 34 2 4 3 -68 3 -71 0 -99 -1 -62 -3z"/>
<path d="M1647 2993 c18 -2 50 -2 70 0 21 2 7 4 -32 4 -38 0 -55 -2 -38 -4z"/>
<path d="M1798 2993 c18 -2 45 -2 60 0 15 2 0 4 -33 4 -33 0 -45 -2 -27 -4z"/>
<path d="M2108 2993 c29 -2 74 -2 100 0 26 2 2 3 -53 3 -55 0 -76 -1 -47 -3z"/>
<path d="M1220 2218 c-26 -14 -36 -44 -26 -83 8 -31 98 -129 155 -167 25 -17
48 -33 50 -34 2 -2 -89 -96 -203 -210 -113 -114 -206 -209 -206 -213 0 -3 53
-59 117 -123 81 -81 125 -118 140 -118 13 0 23 2 23 5 0 2 -53 56 -117 119
l-118 115 200 200 200 200 80 -39 c85 -42 151 -60 218 -60 49 0 72 12 64 33
-4 11 -16 13 -49 10 -115 -13 -326 88 -456 219 -117 118 -57 150 135 74 66
-27 85 -31 94 -20 14 17 -20 39 -107 70 -83 31 -161 39 -194 22z"/>
<path d="M1516 2046 c-33 -30 -47 -49 -43 -60 9 -24 19 -20 62 24 l39 40 141
0 140 0 84 -84 83 -84 2 -136 1 -137 -167 -166 c-93 -92 -168 -168 -168 -170
0 -2 12 -3 27 -3 22 0 60 32 190 163 l163 163 0 148 0 149 -97 98 -97 99 -155
0 -156 0 -49 -44z"/>
<path d="M1734 1917 c-16 -14 -24 -29 -20 -35 10 -16 31 -15 46 3 19 23 76 19
94 -7 23 -33 19 -64 -10 -87 -32 -25 -47 -26 -78 -6 -20 13 -25 13 -35 2 -19
-23 23 -52 76 -52 78 0 125 76 91 150 -25 56 -116 73 -164 32z"/>
<path d="M1425 1740 l-50 -50 53 -52 52 -52 45 44 c25 24 45 51 45 59 0 14
-77 101 -90 101 -3 0 -28 -23 -55 -50z m75 -75 l-23 -25 -23 25 -23 25 22 24
22 25 24 -24 25 -24 -24 -26z"/>
<path d="M1320 1637 c0 -19 57 -70 69 -63 17 11 13 31 -12 54 -26 24 -57 29
-57 9z"/>
<path d="M1551 1606 c-40 -41 -47 -66 -17 -66 15 0 96 82 96 98 0 25 -38 10
-79 -32z"/>
<path d="M1232 1547 c-23 -23 -42 -47 -42 -52 0 -13 82 -95 94 -95 13 0 96 81
96 94 0 14 -81 96 -95 96 -6 0 -30 -19 -53 -43z m76 -30 l22 -23 -25 -24 -25
-24 -20 22 c-24 26 -24 27 -2 51 22 25 25 25 50 -2z"/>
<path d="M1610 1545 l-44 -45 52 -53 52 -52 52 52 52 53 -44 45 c-24 25 -51
45 -60 45 -9 0 -36 -20 -60 -45z m87 -27 l23 -21 -26 -24 -26 -24 -23 23 -24
23 21 22 c26 28 26 28 55 1z"/>
<path d="M1410 1547 c0 -8 9 -22 20 -32 20 -18 20 -19 -15 -47 -37 -31 -44
-52 -21 -61 7 -3 34 15 60 42 l47 48 -26 31 c-27 32 -65 43 -65 19z"/>
<path d="M1514 1449 c-6 -11 82 -109 98 -109 5 0 11 7 15 16 4 10 -9 31 -38
60 -44 45 -62 53 -75 33z"/>
<path d="M1330 1385 c-13 -15 -7 -45 8 -45 15 0 44 38 37 49 -9 16 -30 14 -45
-4z"/>
<path d="M1420 1355 c-37 -37 -43 -49 -34 -63 12 -18 64 -30 64 -13 0 5 -6 11
-12 14 -9 3 -5 13 11 31 l25 26 23 -22 c16 -15 20 -25 13 -32 -18 -18 -11 -27
16 -24 15 2 32 11 38 20 9 14 3 26 -34 63 -24 25 -49 45 -55 45 -6 0 -31 -20
-55 -45z"/>
<path d="M1070 1157 c-45 -22 -39 -102 8 -113 15 -4 34 -12 42 -19 35 -28 43
-29 37 -5 -3 13 1 32 9 46 15 22 12 78 -4 88 -22 12 -70 14 -92 3z m64 -33
c29 -28 12 -57 -30 -52 -22 2 -30 9 -32 27 -6 38 33 54 62 25z"/>
<path d="M1578 1158 c-35 -12 -47 -59 -24 -93 13 -20 25 -25 56 -25 22 0 45 7
54 16 19 18 21 78 4 91 -21 17 -61 22 -90 11z m60 -27 c8 -4 12 -19 10 -32 -2
-19 -10 -25 -35 -27 -31 -3 -33 -1 -33 27 0 36 28 52 58 32z"/>
<path d="M1220 1100 c0 -54 2 -60 21 -60 16 0 19 4 14 20 -5 16 -2 20 14 20
12 0 26 -9 33 -20 7 -11 21 -20 32 -20 17 0 17 1 2 25 -10 15 -12 25 -6 25 7
0 10 14 8 33 -3 32 -4 32 -60 35 l-58 3 0 -61z m88 23 c2 -9 -7 -13 -27 -13
-30 0 -39 9 -24 24 11 10 46 3 51 -11z"/>
<path d="M1390 1100 c0 -47 3 -60 15 -60 9 0 15 9 15 25 0 14 5 25 11 25 6 0
20 -11 31 -25 11 -14 26 -25 34 -25 20 0 18 10 -8 37 l-21 23 21 23 c12 13 22
26 22 30 0 16 -28 5 -50 -18 -13 -14 -27 -25 -32 -25 -4 0 -8 11 -8 25 0 16
-6 25 -15 25 -12 0 -15 -13 -15 -60z"/>
<path d="M1730 1100 l0 -60 48 0 c57 0 72 12 72 60 0 48 -15 60 -72 60 l-48 0
0 -60z m68 34 c16 -5 22 -14 22 -34 0 -23 -5 -28 -30 -32 -29 -4 -30 -3 -30
34 0 40 2 41 38 32z"/>
<path d="M1900 1100 l0 -60 55 0 c42 0 55 3 55 15 0 11 -11 15 -40 15 -22 0
-40 5 -40 10 0 6 16 10 35 10 19 0 35 5 35 10 0 6 -16 10 -35 10 -19 0 -35 5
-35 10 0 6 18 10 40 10 29 0 40 4 40 15 0 12 -13 15 -55 15 l-55 0 0 -60z"/>
<path d="M1290 920 c0 -6 87 -10 241 -10 157 0 238 3 234 10 -4 6 -95 10 -241
10 -149 0 -234 -4 -234 -10z"/>
<path d="M670 805 c0 -5 29 -11 65 -11 49 -2 65 1 65 12 0 10 -16 13 -65 11
-36 -1 -65 -6 -65 -12z"/>
<path d="M821 812 c-34 -11 3 -17 119 -17 93 0 130 3 130 11 0 9 -34 12 -119
11 -65 -1 -123 -3 -130 -5z"/>
<path d="M1140 812 c-37 -13 17 -17 210 -18 154 0 219 3 217 10 -2 7 -71 11
-210 11 -114 0 -211 -1 -217 -3z"/>
<path d="M1585 809 c-8 -12 5 -14 77 -14 40 0 67 4 66 10 -1 12 -136 16 -143
4z"/>
<path d="M1750 805 c0 -6 14 -12 30 -13 20 -2 30 2 30 11 0 9 -11 14 -30 13
-16 -1 -30 -6 -30 -11z"/>
<path d="M1820 804 c0 -7 24 -11 65 -11 40 0 65 4 65 11 0 7 -25 11 -65 11
-41 0 -65 -4 -65 -11z"/>
<path d="M1963 808 c-6 -11 -5 -11 54 -13 38 -1 50 2 46 11 -5 14 -91 15 -100
2z"/>
<path d="M2110 804 c0 -11 48 -10 78 1 6 2 12 0 12 -5 0 -6 9 -10 20 -10 11 0
20 7 20 15 0 11 -14 14 -65 12 -40 -1 -65 -6 -65 -13z"/>
<path d="M2300 805 c0 -11 12 -15 45 -15 61 0 61 24 0 27 -34 2 -45 -2 -45
-12z"/>
</g>
</svg>
