<?xml version="1.0" standalone="no"?>
<!DOCTYPE svg PUBLIC "-//W3C//DTD SVG 20010904//EN"
 "http://www.w3.org/TR/2001/REC-SVG-20010904/DTD/svg10.dtd">
<svg version="1.0" xmlns="http://www.w3.org/2000/svg"
 width="198.000000pt" height="240.000000pt" viewBox="0 0 198.000000 240.000000"
 preserveAspectRatio="xMidYMid meet">
<metadata>
Created by potrace 1.10, written by Peter Selinger 2001-2011
</metadata>
<g transform="translate(0.000000,240.000000) scale(0.100000,-0.100000)"
fill="#000000" stroke="none">
<path d="M498 2285 c-54 -30 -63 -88 -25 -163 34 -71 171 -201 307 -294 l25
-16 -342 -344 c-189 -189 -343 -350 -343 -358 0 -8 83 -98 183 -198 178 -178
185 -184 230 -189 26 -2 47 -3 47 -1 0 3 -86 89 -190 193 -105 104 -189 193
-188 197 2 4 151 155 331 336 l328 329 92 -48 c163 -86 315 -125 435 -113 65
7 90 25 72 54 -6 10 -31 13 -102 11 -75 -2 -110 3 -182 24 -223 65 -541 277
-635 423 -36 57 -39 87 -9 103 47 25 221 -13 375 -82 72 -32 96 -32 91 3 -3
26 -64 58 -205 108 -107 39 -250 51 -295 25z"/>
<path d="M990 1995 c-62 -62 -73 -78 -64 -92 19 -31 34 -25 102 41 l69 66 229
0 229 0 143 -143 142 -142 0 -226 0 -225 -275 -274 c-151 -150 -275 -275 -275
-277 0 -2 19 -2 42 -1 40 3 52 13 305 264 l263 260 0 255 0 255 -158 157 -158
157 -260 0 -260 0 -74 -75z"/>
<path d="M1405 1816 c-16 -8 -43 -28 -60 -45 -23 -25 -27 -35 -19 -48 17 -27
31 -26 55 1 90 103 252 -7 182 -124 -32 -56 -109 -71 -159 -31 -20 16 -30 18
-46 10 -52 -28 24 -89 112 -89 114 0 192 95 168 204 -23 104 -138 164 -233
122z"/>
<path d="M844 1498 c-41 -39 -74 -78 -74 -87 0 -14 143 -161 158 -161 4 0 43
35 86 79 66 66 76 81 68 97 -14 27 -138 144 -152 144 -7 0 -45 -32 -86 -72z
m130 -47 l38 -39 -42 -42 -42 -42 -41 41 -41 41 39 40 c21 22 42 40 45 40 3 0
23 -18 44 -39z"/>
<path d="M677 1343 c-16 -16 -4 -46 33 -83 42 -42 74 -51 84 -23 5 11 -8 31
-41 65 -46 46 -62 55 -76 41z"/>
<path d="M1061 1276 c-74 -74 -87 -107 -47 -114 22 -5 166 133 166 159 0 15
-19 29 -39 29 -3 0 -39 -33 -80 -74z"/>
<path d="M524 1178 c-42 -40 -74 -80 -74 -91 0 -17 126 -146 152 -156 14 -5
158 140 158 160 0 15 -140 159 -155 159 -4 0 -40 -32 -81 -72z m129 -130 c-20
-21 -42 -38 -47 -38 -6 0 -27 17 -48 37 l-38 37 42 43 42 43 43 -42 43 -42
-37 -38z"/>
<path d="M1161 1176 c-54 -55 -72 -78 -67 -92 6 -18 116 -132 145 -148 16 -10
161 129 161 154 0 17 -139 160 -155 160 -6 0 -43 -33 -84 -74z m132 -44 l38
-39 -42 -42 -43 -42 -40 40 -40 41 39 40 c21 22 42 40 45 40 3 0 23 -17 43
-38z"/>
<path d="M833 1193 c-23 -9 -14 -50 17 -76 l30 -26 -58 -55 c-48 -47 -55 -58
-46 -73 20 -33 38 -24 114 52 l74 75 -54 55 c-30 30 -57 55 -60 54 -3 0 -11
-3 -17 -6z"/>
<path d="M997 1013 c-18 -17 -1 -46 68 -112 75 -73 89 -79 109 -48 9 14 -2 30
-64 92 -69 69 -96 86 -113 68z"/>
<path d="M696 909 c-29 -23 -34 -50 -11 -69 13 -11 21 -8 45 15 33 32 39 60
14 69 -21 8 -18 9 -48 -15z"/>
<path d="M831 846 c-64 -67 -71 -77 -60 -94 8 -13 28 -22 58 -25 51 -6 65 -1
38 14 -26 15 -21 31 21 72 l38 37 39 -40 39 -40 -24 -25 -23 -25 47 4 c49 4
76 19 76 43 0 20 -138 153 -159 153 -10 0 -50 -33 -90 -74z"/>
<path d="M263 529 c-41 -12 -63 -44 -63 -91 0 -69 34 -108 95 -108 15 0 31
-10 40 -24 17 -25 65 -42 65 -22 0 6 -7 19 -15 30 -13 17 -12 21 9 37 13 10
26 33 30 50 8 41 -10 106 -32 118 -29 15 -95 20 -129 10z m101 -55 c36 -35 6
-104 -45 -104 -50 0 -69 16 -69 58 0 21 5 43 12 50 17 17 84 15 102 -4z"/>
<path d="M1103 529 c-41 -12 -63 -44 -63 -91 0 -78 33 -108 121 -108 71 0 99
29 99 103 0 43 -5 58 -22 74 -27 25 -91 35 -135 22z m101 -55 c9 -8 16 -28 16
-44 0 -48 -62 -76 -111 -50 -22 12 -27 78 -7 98 17 17 84 15 102 -4z"/>
<path d="M510 432 c0 -96 1 -99 23 -97 18 2 22 7 19 34 -2 29 0 31 32 31 28 0
38 -6 55 -33 11 -18 29 -33 40 -34 25 -2 26 9 5 43 -15 23 -15 26 0 43 21 24
20 74 -2 94 -14 13 -38 17 -95 17 l-77 0 0 -98z m145 48 c13 -22 -17 -41 -59
-38 -34 2 -42 7 -44 26 -3 20 0 22 47 22 27 0 53 -5 56 -10z"/>
<path d="M780 430 c0 -100 0 -100 25 -100 23 0 25 4 25 40 0 33 3 40 19 40 11
0 35 -18 54 -40 20 -24 43 -40 55 -40 30 0 28 10 -14 58 l-35 42 35 43 c42 52
44 57 13 57 -16 0 -35 -14 -56 -40 -18 -22 -41 -40 -51 -40 -17 0 -20 7 -20
40 0 36 -2 40 -25 40 -25 0 -25 0 -25 -100z"/>
<path d="M1344 431 l1 -101 68 0 c71 0 120 17 131 45 13 35 6 103 -13 126 -17
21 -29 24 -104 27 l-84 4 1 -101z m137 49 c14 -8 19 -21 19 -50 0 -45 -18 -60
-74 -60 l-36 0 0 60 0 60 36 0 c19 0 44 -5 55 -10z"/>
<path d="M1630 430 l0 -100 95 0 95 0 0 26 c0 25 -1 25 -67 23 -57 -2 -69 0
-71 14 -3 14 6 17 52 17 49 0 56 2 56 20 0 18 -7 20 -56 20 -47 0 -55 3 -52
17 3 15 14 17 71 15 65 -2 67 -2 67 23 0 25 0 25 -95 25 l-95 0 0 -100z"/>
<path d="M620 130 c0 -6 137 -10 390 -10 253 0 390 4 390 10 0 6 -137 10 -390
10 -253 0 -390 -4 -390 -10z"/>
</g>
</svg>
